# Blender3D v249 OBJ File: forearm_right_top.blend
# www.blender3d.org
v -0.316961 0.133430 -0.299272
v -0.292542 0.175224 -0.019498
v -0.305701 0.053539 -0.018682
v -0.299651 0.053432 0.052922
v -0.321583 0.053539 -0.299237
v -0.285381 0.248713 -0.199230
v -0.260216 0.264455 -0.018279
v -0.266302 0.158548 0.250001
v -0.298672 0.220230 -0.257540
v -0.305735 0.201676 -0.301863
v -0.280294 0.053539 0.240299
v -0.237455 0.314780 -0.092235
v -0.210459 0.329803 -0.016217
v -0.234837 0.235924 0.251632
v -0.264833 0.282247 -0.141071
v -0.205548 0.341825 -0.056050
v -0.137164 0.376508 -0.013968
v -0.185041 0.292736 0.254443
v -0.108938 0.332165 0.257533
v -0.076748 0.391278 0.002800
v -0.312168 0.181558 -0.358487
v -0.322077 0.130527 -0.542454
v -0.317831 0.159399 -0.438871
v -0.320298 0.146661 -0.503856
v -0.324580 0.083157 -0.475803
v -0.325456 0.054777 -0.579876
v -0.323402 0.113118 -0.560454
v -0.324488 0.092647 -0.572551
v -0.261510 0.053539 0.385592
v -0.244897 0.160146 0.387184
v -0.250290 0.142216 0.385739
v -0.254148 0.125039 0.385687
v -0.262250 0.090169 0.362558
v -0.209126 0.228024 0.392192
v -0.156508 0.274931 0.394993
v -0.000000 0.372812 0.134222
v -0.000000 0.347158 0.259111
v -0.086781 0.302915 0.397505
v -0.000000 0.396872 0.009015
v -0.040576 0.395413 0.007398
v 0.040578 0.395413 0.007398
v -0.000000 0.312287 0.398594
v 0.097060 0.335596 0.257865
v 0.076752 0.391278 0.002799
v -0.258973 0.089348 0.385625
v -0.225644 0.199345 0.400733
v -0.192313 0.234538 0.430546
v -0.225334 0.199810 0.400988
v -0.208353 0.220691 0.415871
v -0.142543 0.256541 0.477949
v -0.164233 0.250084 0.456791
v -0.077639 0.264922 0.521407
v -0.079963 0.264746 0.520473
v -0.000000 0.267494 0.535215
v 0.086777 0.302916 0.397505
v -0.261166 0.062824 0.385594
v 0.077639 0.264922 0.521407
v 0.324580 0.083160 -0.475805
v 0.325455 0.055137 -0.579876
v 0.321583 0.053539 -0.299237
v 0.324489 0.092616 -0.572564
v 0.323402 0.113108 -0.560462
v 0.316960 0.133437 -0.299272
v 0.322076 0.130535 -0.542441
v 0.320298 0.146661 -0.503855
v 0.317846 0.159333 -0.439154
v 0.312208 0.181418 -0.358924
v 0.305749 0.201634 -0.301966
v 0.291465 0.179868 -0.019474
v 0.255878 0.272231 -0.018090
v 0.298679 0.220210 -0.257585
v 0.305700 0.053539 -0.018682
v 0.280293 0.053539 0.240299
v 0.298215 0.053432 0.065635
v 0.285258 0.248945 -0.198796
v 0.264511 0.282699 -0.140347
v 0.236989 0.315248 -0.091579
v 0.204581 0.335109 -0.015998
v 0.205018 0.342200 -0.055569
v 0.137164 0.376508 -0.013968
v 0.169225 0.304144 0.255220
v 0.224369 0.251644 0.252253
v 0.263248 0.169845 0.250107
v 0.156501 0.274935 0.394994
v 0.209119 0.228033 0.392193
v 0.250290 0.142216 0.385739
v 0.244893 0.160158 0.387186
v 0.261510 0.053539 0.385592
v 0.261166 0.062824 0.385594
v 0.262251 0.090171 0.362553
v 0.254148 0.125039 0.385687
v 0.258973 0.089348 0.385625
v 0.079963 0.264746 0.520473
v 0.164250 0.250077 0.456775
v 0.142542 0.256541 0.477949
v 0.225628 0.199368 0.400745
v 0.192343 0.234516 0.430518
v 0.208386 0.220658 0.415841
v 0.225368 0.199760 0.400960
v -0.324766 0.016943 -0.475800
v -0.322042 -0.040155 -0.579836
v -0.316277 -0.048309 -0.298230
v -0.300511 -0.037758 -0.016284
v -0.293339 -0.035549 0.068098
v -0.272846 -0.048177 0.237712
v -0.261404 0.039138 0.385592
v -0.255642 -0.026078 0.385687
v -0.248187 -0.061729 0.387590
v -0.252919 -0.041573 0.385734
v 0.316277 -0.048309 -0.298230
v 0.300749 -0.035677 -0.016353
v 0.293580 -0.033517 0.068020
v 0.322041 -0.040158 -0.579836
v 0.272846 -0.048177 0.237712
v 0.255641 -0.026080 0.385687
v 0.261404 0.039137 0.385592
v 0.252919 -0.041573 0.385734
vn -0.991682 0.107713 0.070466
vn -0.990642 0.107690 0.083857
vn -0.996739 0.057689 0.056426
vn -0.935857 0.337663 0.100775
vn -0.934789 0.337125 0.111878
vn -0.955286 0.285072 0.078498
vn -0.974568 0.214274 0.065609
vn -0.984502 0.164277 0.061389
vn -0.987108 0.121952 0.103657
vn -0.987729 0.118292 0.101972
vn -0.787546 0.594529 0.162194
vn -0.790157 0.597298 0.137431
vn -0.835372 0.538674 0.109468
vn -0.912243 0.399152 0.092142
vn -0.919908 0.371424 0.125755
vn -0.532241 0.826402 0.183792
vn -0.533705 0.829666 0.163745
vn -0.717004 0.686855 0.118896
vn -0.746367 0.646357 0.158612
vn -0.457750 0.868659 0.189463
vn -0.281124 0.942045 0.183086
vn -0.984992 0.164062 0.053606
vn -0.998124 0.057753 0.020310
vn -0.989962 0.137715 0.031790
vn -0.996336 0.082746 0.021604
vn -0.997897 0.061566 0.020259
vn -0.994432 0.099868 0.033633
vn -0.999717 -0.019435 0.013710
vn -0.997768 0.066096 0.009505
vn -0.998711 0.050604 0.004009
vn -0.999680 0.025262 0.001522
vn -0.984647 0.119440 0.127298
vn -0.918369 0.370519 0.138977
vn -0.966171 0.216580 0.140027
vn -0.981513 0.145854 0.123934
vn -0.950644 0.274248 0.145134
vn -0.999257 0.003913 0.038343
vn -0.744954 0.644432 0.172484
vn -0.874942 0.447416 0.185188
vn -0.456968 0.866129 0.202486
vn -0.655095 0.721459 0.224381
vn -0.136437 0.970387 0.199335
vn -0.136072 0.965219 0.223243
vn -0.151055 0.970764 0.186546
vn -0.044238 0.971345 0.233520
vn -0.137087 0.968593 0.207448
vn -0.368649 0.896510 0.245699
vn 0.083020 0.976165 0.200522
vn -0.107196 0.964553 0.241137
vn 0.117853 0.963382 0.240844
vn 0.137133 0.968516 0.207779
vn 0.118396 0.972042 0.202775
vn 0.042799 0.981133 0.188538
vn -0.980684 0.132318 0.144050
vn -0.875240 0.469746 -0.115298
vn -0.661148 0.731762 0.165555
vn -0.851143 0.517104 0.090327
vn -0.823922 0.533175 0.192034
vn -0.744802 0.630157 0.219481
vn -0.367710 0.892900 0.259845
vn -0.504812 0.820910 0.266967
vn -0.623517 0.749239 0.223310
vn -0.106177 0.948434 0.298662
vn -0.319782 0.899736 0.297009
vn -0.191505 0.934317 0.300630
vn -0.086568 0.946664 0.310376
vn 0.105927 0.944885 0.309793
vn 0.107288 0.966289 0.234039
vn -0.995217 0.036788 0.090497
vn -0.986363 0.081405 0.143044
vn 0.084472 0.950879 0.297815
vn 0.999715 -0.019587 0.013684
vn 0.999674 0.025477 0.001549
vn 0.998712 0.050588 0.004004
vn 0.998283 0.054926 0.020348
vn 0.995875 0.089010 0.017635
vn 0.997898 0.061556 0.020260
vn 0.996351 0.082576 0.021594
vn 0.989995 0.137489 0.031720
vn 0.985004 0.164038 0.053472
vn 0.984433 0.164299 0.062435
vn 0.976285 -0.094173 0.194932
vn 0.930905 0.357559 0.074620
vn 0.996739 0.057693 0.056426
vn 0.997976 0.057751 0.026629
vn 0.991104 0.112129 0.071700
vn 0.987491 0.120873 0.101250
vn 0.974661 0.177949 0.135535
vn 0.914623 0.392211 0.098163
vn 0.831621 0.545249 0.105407
vn 0.720572 0.681086 0.129990
vn 0.766821 0.620063 0.165855
vn 0.520272 0.839597 0.156185
vn 0.519812 0.838490 0.163492
vn 0.281165 0.942000 0.183257
vn 0.397916 0.896747 0.193670
vn 0.769761 0.623415 0.137189
vn 0.684264 0.709104 0.170158
vn 0.927985 0.355898 0.110366
vn 0.896093 0.422324 0.136601
vn 0.984898 0.135225 0.108118
vn 0.395441 0.887440 0.236805
vn 0.680208 0.702663 0.208762
vn 0.370008 0.902066 0.222194
vn 0.892039 0.419573 0.168003
vn 0.658447 0.727079 0.194432
vn 0.983547 0.133920 0.121247
vn 0.879196 0.452335 0.149694
vn 0.950457 0.274096 0.146640
vn 0.991081 0.036621 0.128130
vn 0.989767 0.066927 0.126020
vn 0.973503 0.218444 0.067640
vn 0.981698 0.164761 0.095514
vn 0.986362 0.081408 0.143046
vn 0.365046 0.883220 0.294387
vn 0.191521 0.934313 0.300631
vn 0.656868 0.724432 0.209099
vn 0.293259 0.921749 0.253728
vn 0.504862 0.820879 0.266969
vn 0.875260 0.469786 -0.114983
vn 0.553614 0.826436 0.102544
vn 0.744995 0.629901 0.219562
vn 0.824054 0.533052 0.191809
vn 0.851085 0.517170 0.090495
vn 0.980683 0.132319 0.144056
vn -0.999333 -0.035941 -0.006441
vn -0.999704 0.019962 0.013884
vn -0.996593 -0.080472 0.018071
vn -0.997013 -0.051370 0.057676
vn -0.998249 -0.051721 0.028715
vn -0.996880 -0.055188 0.056434
vn -0.994817 -0.054295 0.085973
vn -0.994879 -0.056256 0.083970
vn -0.991951 -0.050571 0.116081
vn -0.991883 -0.075232 0.102512
vn -0.988945 -0.087209 0.119928
vn -0.991720 -0.007265 0.128213
vn -0.989105 -0.075633 0.126294
vn -0.966767 -0.214114 0.139700
vn -0.975432 -0.170963 0.138941
vn 0.996903 -0.053835 0.057331
vn 0.994812 -0.050619 0.088248
vn 0.997082 -0.051386 0.056445
vn 0.994895 -0.052978 0.085891
vn 0.998476 -0.051829 0.018939
vn 0.999267 -0.035793 0.013585
vn 0.993521 -0.050174 0.101974
vn 0.990553 -0.075440 0.114512
vn 0.987957 -0.087113 0.127876
vn 0.975431 -0.170965 0.138941
vn 0.988904 -0.075658 0.127848
vn 0.996653 -0.007304 0.081426
vn 0.989794 0.112084 0.088009
usemtl (null)
s off
f 1//1 3//1 2//1
f 4//2 2//2 3//2
f 3//3 1//3 5//3
f 6//4 2//4 7//4
f 8//5 7//5 2//5
f 9//6 2//6 6//6
f 10//7 2//7 9//7
f 1//8 2//8 10//8
f 8//9 2//9 11//9
f 4//10 11//10 2//10
f 12//11 7//11 13//11
f 14//12 13//12 7//12
f 15//13 7//13 12//13
f 6//14 7//14 15//14
f 14//15 7//15 8//15
f 16//16 13//16 17//16
f 18//17 17//17 13//17
f 12//18 13//18 16//18
f 18//19 13//19 14//19
f 19//20 17//20 18//20
f 20//21 17//21 19//21
f 21//22 1//22 10//22
f 5//23 1//23 22//23
f 23//24 1//24 21//24
f 24//25 1//25 23//25
f 22//26 1//26 24//26
f 25//27 5//27 22//27
f 25//28 26//28 5//28
f 25//29 22//29 27//29
f 25//30 27//30 28//30
f 25//31 28//31 26//31
f 29//32 8//32 11//32
f 30//33 14//33 8//33
f 31//34 8//34 32//34
f 33//35 32//35 8//35
f 30//36 8//36 31//36
f 33//37 8//37 29//37
f 34//38 18//38 14//38
f 34//39 14//39 30//39
f 35//40 19//40 18//40
f 35//41 18//41 34//41
f 36//42 19//42 37//42
f 38//43 37//43 19//43
f 39//44 19//44 36//44
f 40//45 19//45 39//45
f 20//46 19//46 40//46
f 38//47 19//47 35//47
f 41//48 36//48 37//48
f 42//49 37//49 38//49
f 43//50 37//50 42//50
f 41//51 37//51 44//51
f 43//52 44//52 37//52
f 41//53 39//53 36//53
f 33//54 45//54 32//54
f 46//55 34//55 30//55
f 47//56 35//56 34//56
f 48//57 34//57 46//57
f 49//58 34//58 48//58
f 47//59 34//59 49//59
f 50//60 38//60 35//60
f 51//61 50//61 35//61
f 51//62 35//62 47//62
f 52//63 42//63 38//63
f 53//64 38//64 50//64
f 52//65 38//65 53//65
f 54//66 42//66 52//66
f 55//67 42//67 54//67
f 55//68 43//68 42//68
f 33//69 29//69 56//69
f 33//70 56//70 45//70
f 57//71 55//71 54//71
f 58//72 60//72 59//72
f 58//73 59//73 61//73
f 58//74 61//74 62//74
f 63//75 62//75 64//75
f 58//76 62//76 63//76
f 63//77 64//77 65//77
f 63//78 65//78 66//78
f 63//79 66//79 67//79
f 63//80 67//80 68//80
f 69//81 63//81 68//81
f 70//82 68//82 71//82
f 69//83 68//83 70//83
f 72//84 60//84 63//84
f 58//85 63//85 60//85
f 69//86 72//86 63//86
f 73//87 74//87 69//87
f 70//88 71//88 75//88
f 70//89 75//89 76//89
f 70//90 76//90 77//90
f 78//91 77//91 79//91
f 70//92 77//92 78//92
f 78//93 79//93 80//93
f 81//94 78//94 80//94
f 43//95 80//95 44//95
f 81//96 80//96 43//96
f 82//97 70//97 78//97
f 82//98 78//98 81//98
f 83//99 69//99 70//99
f 83//100 70//100 82//100
f 73//101 69//101 83//101
f 55//102 81//102 43//102
f 84//103 82//103 81//103
f 84//104 81//104 55//104
f 85//105 83//105 82//105
f 85//106 82//106 84//106
f 86//107 73//107 83//107
f 87//108 83//108 85//108
f 86//109 83//109 87//109
f 88//110 73//110 89//110
f 90//111 89//111 73//111
f 91//112 73//112 86//112
f 90//113 73//113 91//113
f 90//114 92//114 89//114
f 93//115 84//115 55//115
f 93//116 55//116 57//116
f 94//117 85//117 84//117
f 95//118 84//118 93//118
f 94//119 84//119 95//119
f 96//120 87//120 85//120
f 97//121 85//121 94//121
f 98//122 85//122 97//122
f 99//123 85//123 98//123
f 96//124 85//124 99//124
f 90//125 91//125 92//125
f 100//126 26//126 101//126
f 100//127 5//127 26//127
f 100//128 101//128 102//128
f 103//129 5//129 102//129
f 100//130 102//130 5//130
f 103//131 3//131 5//131
f 104//132 3//132 103//132
f 4//133 3//133 104//133
f 105//134 4//134 104//134
f 11//135 4//135 105//135
f 106//136 11//136 107//136
f 11//137 106//137 29//137
f 107//138 11//138 105//138
f 109//139 105//139 108//139
f 107//140 105//140 109//140
f 110//141 72//141 111//141
f 112//142 72//142 74//142
f 60//143 72//143 110//143
f 111//144 72//144 112//144
f 113//145 60//145 110//145
f 60//146 113//146 59//146
f 73//147 112//147 74//147
f 73//148 114//148 112//148
f 115//149 114//149 116//149
f 114//150 115//150 117//150
f 88//151 114//151 73//151
f 116//152 114//152 88//152
f 74//153 72//153 69//153
